# xmcd
#
# Track frame offsets:
#	150
#	22254
#	40034
#	60572
#	75359
#	93668
#	113777
#	134748
#	147872
#	166025
#	181715
#	205586
#	232618
#	246571
#	265015
#	282111
#
# Disc length: 3982 seconds
#
# Revision: 0
# Processed by: cddbd v1.5.2PL0 Copyright (c) Steve Scherf et al.
# Submitted via: EasyCDDAExtractor 15.2.5.1
#
DISCID=d00f8c10
DTITLE=WITCH - WE INTEND TO CAUSE HAVOC! 2/4
DYEAR=1900
DGENRE=
TTITLE0=BLACK TEARS
TTITLE1=MOTHERLESS CHILD
TTITLE2=TOOTH FACTORY
TTITLE3=STRANGE DREAM
TTITLE4=LOOK OUT
TTITLE5=HAVOC
TTITLE6=OCTOBER NIGHT
TTITLE7=OFF MY BOOTS
TTITLE8=LAZY BONES
TTITLE9=LITTLE CLOWN
TTITLE10=TALKING UNIVERSE
TTITLE11=EVIL WOMAN
TTITLE12=SWEET SIXTEEN
TTITLE13=TOLOKA
TTITLE14=81ST CROWD CONFUSION
TTITLE15=UP THE SKY
EXTD=
EXTT0=
EXTT1=
EXTT2=
EXTT3=
EXTT4=
EXTT5=
EXTT6=
EXTT7=
EXTT8=
EXTT9=
EXTT10=
EXTT11=
EXTT12=
EXTT13=
EXTT14=
EXTT15=
PLAYORDER=
